<svg xmlns="http://www.w3.org/2000/svg" viewBox="0 0 1200 1920" font-family="sans-serif">
  <defs>
    <marker id="dw4" viewBox="0 0 10 10" refX="9" refY="5" markerWidth="7" markerHeight="7" orient="auto-start-reverse"><path d="M0,0 L10,5 L0,10 z" fill="#8a93a0"/></marker>
  </defs>
  <rect width="1200" height="1920" fill="#14171c"/>
  <rect x="40" y="40" width="1120" height="1840" fill="none" stroke="#2b313b" stroke-width="2" rx="14"/>

  <text x="600" y="232" text-anchor="middle" fill="#7f8a98" font-size="30" letter-spacing="8">BOOK 4 · LESSON 8 · DEEP DIVE</text>

  <text x="600" y="426" text-anchor="middle" fill="#f5f7fa" font-size="138" font-weight="bold" letter-spacing="3">WATERMARKS</text>

  <line x1="410" y1="498" x2="790" y2="498" stroke="#e8b53f" stroke-width="4"/>
  <text x="600" y="562" text-anchor="middle" fill="#e8b53f" font-size="34" letter-spacing="4">EVENT TIME · COMPLETENESS · TRIGGERS</text>

  <!-- HERO: event-time line + watermark + late event -->
  <g transform="translate(180,700)">
    <rect x="0" y="0" width="840" height="660" rx="16" fill="#1b1f26" stroke="#2c323c" stroke-width="2"/>
    <text x="420" y="80" text-anchor="middle" fill="#8a93a0" font-size="24">when is a window complete? — a guess</text>

    <!-- window band -->
    <rect x="120" y="160" width="380" height="180" rx="6" fill="#222a36" stroke="#3a4658"/>
    <text x="310" y="190" text-anchor="middle" fill="#8a93a0" font-size="22">window [12:00–12:05)</text>

    <!-- event-time axis -->
    <line x1="100" y1="340" x2="740" y2="340" stroke="#5a6472" stroke-width="2" marker-end="url(#dw4)"/>
    <text x="752" y="346" fill="#8a93a0" font-size="20">event time</text>
    <text x="120" y="368" fill="#8a93a0" font-size="18">12:00</text><text x="480" y="368" fill="#8a93a0" font-size="18">12:05</text>

    <!-- events -->
    <circle cx="180" cy="250" r="13" fill="#3a6da6" stroke="#9bc0e6"/>
    <circle cx="250" cy="290" r="13" fill="#3a6da6" stroke="#9bc0e6"/>
    <circle cx="360" cy="240" r="13" fill="#3a6da6" stroke="#9bc0e6"/>
    <circle cx="430" cy="295" r="13" fill="#3a6da6" stroke="#9bc0e6"/>

    <!-- watermark -->
    <line x1="540" y1="140" x2="540" y2="350" stroke="#e8b53f" stroke-width="3.5" stroke-dasharray="9 6"/>
    <text x="560" y="158" fill="#e8b53f" font-size="22" font-weight="bold">watermark</text>

    <!-- late event -->
    <circle cx="320" cy="420" r="13" fill="#c0392b" stroke="#e88"/><line x1="311" y1="411" x2="329" y2="429" stroke="#fff" stroke-width="2.4"/><line x1="329" y1="411" x2="311" y2="429" stroke="#fff" stroke-width="2.4"/>
    <text x="345" y="416" fill="#e0857d" font-size="20">late event →</text>
    <text x="345" y="440" fill="#8a93a0" font-size="18">dropped, or re-fire the window</text>

    <text x="420" y="520" text-anchor="middle" fill="#8a93a0" font-size="24">completeness vs latency — you choose how to be wrong</text>
  </g>

  <rect x="120" y="1480" width="960" height="280" rx="16" fill="none" stroke="#e8b53f" stroke-width="2"/>
  <text x="600" y="1556" text-anchor="middle" fill="#e8b53f" font-size="30" letter-spacing="5">THE HARD PARTS</text>
  <text x="600" y="1630" text-anchor="middle" fill="#f5f7fa" font-size="38" font-weight="bold">Perfect vs heuristic · the idle</text>
  <text x="600" y="1680" text-anchor="middle" fill="#f5f7fa" font-size="38" font-weight="bold">stall · early/on-time/late firings</text>
  <text x="600" y="1732" text-anchor="middle" fill="#aab2bd" font-size="26">a supplement to Streaming, Lesson 8</text>

  <text x="600" y="1838" text-anchor="middle" fill="#646e7a" font-size="26">Dataflow Model 2015 · Streaming Systems · Flink</text>
</svg>
