<svg xmlns="http://www.w3.org/2000/svg" viewBox="0 0 1200 1920" font-family="sans-serif">
  <defs>
    <marker id="dv" viewBox="0 0 10 10" refX="9" refY="5" markerWidth="7" markerHeight="7" orient="auto-start-reverse"><path d="M0,0 L10,5 L0,10 z" fill="#e8b53f"/></marker>
  </defs>
  <rect width="1200" height="1920" fill="#14171c"/>
  <rect x="40" y="40" width="1120" height="1840" fill="none" stroke="#2b313b" stroke-width="2" rx="14"/>

  <text x="600" y="232" text-anchor="middle" fill="#7f8a98" font-size="30" letter-spacing="8">PART 1 · LESSON 8 · DEEP DIVE</text>

  <text x="600" y="430" text-anchor="middle" fill="#f5f7fa" font-size="150" font-weight="bold" letter-spacing="2">CONSENSUS</text>

  <line x1="430" y1="500" x2="770" y2="500" stroke="#e8b53f" stroke-width="4"/>
  <text x="600" y="566" text-anchor="middle" fill="#e8b53f" font-size="42" letter-spacing="10">FLP · RAFT · BYZANTINE</text>

  <!-- HERO: a candidate winning a majority -->
  <g transform="translate(180,700)">
    <rect x="0" y="0" width="840" height="660" rx="16" fill="#1b1f26" stroke="#2c323c" stroke-width="2"/>
    <text x="420" y="80" text-anchor="middle" fill="#8a93a0" font-size="24">a majority elects one leader</text>

    <!-- candidate center -->
    <rect x="340" y="270" width="160" height="80" rx="10" fill="#33301f" stroke="#e8b53f" stroke-width="2.5"/>
    <text x="420" y="305" text-anchor="middle" fill="#f5f7fa" font-size="26" font-weight="bold">LEADER</text>
    <text x="420" y="332" text-anchor="middle" fill="#aab2bd" font-size="20">term 5</text>

    <!-- surrounding nodes -->
    <circle cx="150" cy="150" r="40" fill="#262b33" stroke="#cdd4dd" stroke-width="2"/><text x="150" y="158" text-anchor="middle" fill="#f5f7fa" font-size="24">N1</text>
    <circle cx="690" cy="150" r="40" fill="#262b33" stroke="#cdd4dd" stroke-width="2"/><text x="690" y="158" text-anchor="middle" fill="#f5f7fa" font-size="24">N2</text>
    <circle cx="150" cy="480" r="40" fill="#262b33" stroke="#cdd4dd" stroke-width="2"/><text x="150" y="488" text-anchor="middle" fill="#f5f7fa" font-size="24">N4</text>
    <circle cx="690" cy="480" r="40" fill="#1f2a20" stroke="#4a5a4d" stroke-width="2" stroke-dasharray="4 3"/><text x="690" y="488" text-anchor="middle" fill="#6b7a6e" font-size="24">N5</text>

    <!-- vote arrows (3 grant) -->
    <line x1="186" y1="178" x2="336" y2="288" stroke="#e8b53f" stroke-width="3" marker-end="url(#dv)"/>
    <line x1="654" y1="178" x2="504" y2="288" stroke="#e8b53f" stroke-width="3" marker-end="url(#dv)"/>
    <line x1="186" y1="452" x2="336" y2="338" stroke="#e8b53f" stroke-width="3" marker-end="url(#dv)"/>
    <line x1="654" y1="452" x2="504" y2="338" stroke="#4a5a4d" stroke-width="2.5" stroke-dasharray="6 4"/>
    <text x="250" y="230" fill="#e8b53f" font-size="20">vote</text>
    <text x="640" y="430" fill="#6b7a6e" font-size="18">no reply — fine</text>

    <text x="420" y="430" text-anchor="middle" fill="#aab2bd" font-size="22">3 of 5 = majority</text>
    <text x="420" y="560" text-anchor="middle" fill="#8a93a0" font-size="24">agree on one value, despite failure</text>
  </g>

  <rect x="120" y="1480" width="960" height="280" rx="16" fill="none" stroke="#e8b53f" stroke-width="2"/>
  <text x="600" y="1556" text-anchor="middle" fill="#e8b53f" font-size="30" letter-spacing="5">THE HARD PARTS</text>
  <text x="600" y="1632" text-anchor="middle" fill="#f5f7fa" font-size="42" font-weight="bold">Bivalence · the Figure-8 rule</text>
  <text x="600" y="1684" text-anchor="middle" fill="#f5f7fa" font-size="42" font-weight="bold">Joint consensus · 3f+1</text>
  <text x="600" y="1736" text-anchor="middle" fill="#aab2bd" font-size="26">a supplement to Distributed Systems, Lesson 8</text>

  <text x="600" y="1838" text-anchor="middle" fill="#646e7a" font-size="26">FLP 1985 · Raft 2014 · PBFT 1999</text>
</svg>
