<svg xmlns="http://www.w3.org/2000/svg" viewBox="0 0 1200 1920" font-family="sans-serif">
  <defs>
    <marker id="chc" viewBox="0 0 10 10" refX="9" refY="5" markerWidth="7" markerHeight="7" orient="auto-start-reverse"><path d="M0,0 L10,5 L0,10 z" fill="#e8b53f"/></marker>
  </defs>
  <rect width="1200" height="1920" fill="#14171c"/>
  <rect x="40" y="40" width="1120" height="1840" fill="none" stroke="#2b313b" stroke-width="2" rx="14"/>

  <text x="600" y="222" text-anchor="middle" fill="#7f8a98" font-size="30" letter-spacing="7">BOOK 5 · LESSONS 6 &amp; 8 · DEEP DIVE</text>

  <text x="600" y="396" text-anchor="middle" fill="#f5f7fa" font-size="120" font-weight="bold" letter-spacing="2">CONSISTENT</text>
  <text x="600" y="516" text-anchor="middle" fill="#f5f7fa" font-size="120" font-weight="bold" letter-spacing="6">HASHING</text>

  <line x1="420" y1="578" x2="780" y2="578" stroke="#e8b53f" stroke-width="4"/>
  <text x="600" y="642" text-anchor="middle" fill="#e8b53f" font-size="34" letter-spacing="5">THE RING · VNODES · BOUNDED LOADS</text>

  <!-- HERO: ring with vnodes + a key -->
  <g transform="translate(180,720)">
    <rect x="0" y="0" width="840" height="640" rx="16" fill="#1b1f26" stroke="#2c323c" stroke-width="2"/>
    <text x="420" y="78" text-anchor="middle" fill="#8a93a0" font-size="24">a key → the next node clockwise</text>

    <circle cx="420" cy="330" r="180" fill="none" stroke="#3a4452" stroke-width="2"/>
    <!-- vnodes scattered, colored by 4 physical nodes -->
    <g>
      <circle cx="420" cy="150" r="10" fill="#3a6da6"/><circle cx="500" cy="168" r="10" fill="#2f8a4e"/><circle cx="560" cy="220" r="10" fill="#c8761f"/><circle cx="595" cy="295" r="10" fill="#8a6fb0"/>
      <circle cx="598" cy="375" r="10" fill="#3a6da6"/><circle cx="558" cy="448" r="10" fill="#2f8a4e"/><circle cx="498" cy="498" r="10" fill="#c8761f"/><circle cx="420" cy="512" r="10" fill="#8a6fb0"/>
      <circle cx="342" cy="498" r="10" fill="#3a6da6"/><circle cx="282" cy="448" r="10" fill="#2f8a4e"/><circle cx="245" cy="372" r="10" fill="#c8761f"/><circle cx="245" cy="290" r="10" fill="#8a6fb0"/>
      <circle cx="282" cy="218" r="10" fill="#3a6da6"/><circle cx="342" cy="166" r="10" fill="#2f8a4e"/>
    </g>
    <!-- a key -->
    <circle cx="465" cy="155" r="8" fill="#e8b53f"/>
    <line x1="475" y1="160" x2="495" y2="167" stroke="#e8b53f" stroke-width="3" marker-end="url(#chc)"/>
    <text x="470" y="135" text-anchor="middle" fill="#e8b53f" font-size="20">key</text>

    <text x="420" y="345" text-anchor="middle" fill="#8a93a0" font-size="22">virtual nodes →</text>
    <text x="420" y="372" text-anchor="middle" fill="#aab2bd" font-size="22">even load</text>

    <text x="420" y="600" text-anchor="middle" fill="#8a93a0" font-size="24">move ~K/N keys on a change, not nearly all</text>
  </g>

  <rect x="120" y="1480" width="960" height="280" rx="16" fill="none" stroke="#e8b53f" stroke-width="2"/>
  <text x="600" y="1556" text-anchor="middle" fill="#e8b53f" font-size="30" letter-spacing="5">THE HARD PARTS</text>
  <text x="600" y="1630" text-anchor="middle" fill="#f5f7fa" font-size="38" font-weight="bold">Why mod-N fails · vnodes ·</text>
  <text x="600" y="1680" text-anchor="middle" fill="#f5f7fa" font-size="38" font-weight="bold">bounded loads · rendezvous</text>
  <text x="600" y="1732" text-anchor="middle" fill="#aab2bd" font-size="26">a supplement to Applied Systems Design, Lessons 6 &amp; 8</text>

  <text x="600" y="1838" text-anchor="middle" fill="#646e7a" font-size="26">Karger 1997 · Dynamo · Mirrokni 2016</text>
</svg>
