<svg xmlns="http://www.w3.org/2000/svg" viewBox="0 0 1000 500" font-family="sans-serif">
  <defs>
    <marker id="aw1" viewBox="0 0 10 10" refX="9" refY="5" markerWidth="7" markerHeight="7" orient="auto-start-reverse"><path d="M0,0 L10,5 L0,10 z" fill="#333"/></marker>
    <style>
      .title{font-size:16px;font-weight:bold;fill:#111}
      .h{font-size:13px;font-weight:bold;fill:#111}
      .win{fill:#e7eef7;stroke:#9bb4d4;stroke-width:1}
      .axis{stroke:#333;stroke-width:1.5}
      .tick{font-size:10px;fill:#333}
      .dot{fill:#2a6099;stroke:#1a4470;stroke-width:1}
      .late{fill:#c0392b;stroke:#8a2820;stroke-width:1}
      .wm{stroke:#6b4fa0;stroke-width:2.4;stroke-dasharray:6 4}
      .wmT{font-size:11px;font-weight:bold;fill:#52407e}
      .good{font-size:11px;font-weight:bold;fill:#1f7a1f}
      .bad{font-size:11px;font-weight:bold;fill:#b00000}
      .cap{font-size:11px;fill:#555}
    </style>
  </defs>
  <rect width="1000" height="500" fill="#ffffff"/>
  <text x="500" y="26" text-anchor="middle" class="title">A watermark is a guess about completeness</text>
  <line x1="500" y1="46" x2="500" y2="420" stroke="#dcdcdc"/>

  <!-- PERFECT -->
  <text x="240" y="74" text-anchor="middle" class="h">Perfect watermark — exact</text>
  <rect class="win" x="60" y="120" width="240" height="120"/>
  <text x="180" y="138" text-anchor="middle" class="cap">window [12:00–12:05)</text>
  <line class="axis" x1="40" y1="240" x2="430" y2="240" marker-end="url(#aw1)"/><text x="438" y="244" class="cap">event time</text>
  <text x="60" y="258" class="tick">12:00</text><text x="290" y="258" class="tick">12:05</text>
  <circle class="dot" cx="110" cy="180" r="9"/><circle class="dot" cx="160" cy="205" r="9"/><circle class="dot" cx="220" cy="170" r="9"/><circle class="dot" cx="270" cy="200" r="9"/>
  <line class="wm" x1="300" y1="110" x2="300" y2="245"/><text x="308" y="124" class="wmT">watermark = 12:05</text>
  <text x="240" y="300" text-anchor="middle" class="good">every event arrived before the watermark.</text>
  <text x="240" y="316" text-anchor="middle" class="cap">window fires COMPLETE — nothing is ever late.</text>

  <!-- HEURISTIC -->
  <text x="740" y="74" text-anchor="middle" class="h">Heuristic watermark — a guess</text>
  <rect class="win" x="560" y="120" width="240" height="120"/>
  <text x="680" y="138" text-anchor="middle" class="cap">window [12:00–12:05)</text>
  <line class="axis" x1="540" y1="240" x2="950" y2="240" marker-end="url(#aw1)"/><text x="958" y="244" class="cap">event time</text>
  <text x="560" y="258" class="tick">12:00</text><text x="790" y="258" class="tick">12:05</text>
  <circle class="dot" cx="610" cy="180" r="9"/><circle class="dot" cx="660" cy="205" r="9"/><circle class="dot" cx="720" cy="175" r="9"/>
  <line class="wm" x1="840" y1="110" x2="840" y2="245"/><text x="840" y="124" text-anchor="middle" class="wmT">wm = 12:06 (too far)</text>
  <circle class="late" cx="600" cy="312" r="9"/><line x1="592" y1="304" x2="608" y2="320" stroke="#fff" stroke-width="2"/><line x1="608" y1="304" x2="592" y2="320" stroke="#fff" stroke-width="2"/>
  <text x="952" y="300" text-anchor="end" class="bad">straggler (event-time 12:04) arrives AFTER</text>
  <text x="952" y="316" text-anchor="end" class="bad">the watermark → classed LATE → dropped</text>
  <text x="680" y="350" text-anchor="middle" class="cap">too fast → drops stragglers · too slow → fires late, holds state.</text>

  <rect x="160" y="446" width="680" height="40" rx="8" fill="#f6f7f6" stroke="#ddd"/>
  <text x="500" y="471" text-anchor="middle" class="h">The watermark trades completeness against latency — like a timeout trades false alarms against speed (Book 1).</text>
</svg>
