<svg xmlns="http://www.w3.org/2000/svg" viewBox="0 0 1200 1920" font-family="sans-serif">
  <defs>
    <marker id="dm2" viewBox="0 0 10 10" refX="9" refY="5" markerWidth="7" markerHeight="7" orient="auto-start-reverse"><path d="M0,0 L10,5 L0,10 z" fill="#e8b53f"/></marker>
  </defs>
  <rect width="1200" height="1920" fill="#14171c"/>
  <rect x="40" y="40" width="1120" height="1840" fill="none" stroke="#2b313b" stroke-width="2" rx="14"/>

  <text x="600" y="232" text-anchor="middle" fill="#7f8a98" font-size="30" letter-spacing="8">BOOK 2 · LESSON 4 · DEEP DIVE</text>

  <text x="600" y="438" text-anchor="middle" fill="#f5f7fa" font-size="170" font-weight="bold" letter-spacing="6">MVCC</text>

  <line x1="420" y1="506" x2="780" y2="506" stroke="#e8b53f" stroke-width="4"/>
  <text x="600" y="570" text-anchor="middle" fill="#e8b53f" font-size="36" letter-spacing="6">VERSIONS · VISIBILITY · VACUUM</text>

  <!-- HERO: version chain + vacuum -->
  <g transform="translate(180,710)">
    <rect x="0" y="0" width="840" height="640" rx="16" fill="#1b1f26" stroke="#2c323c" stroke-width="2"/>
    <text x="420" y="80" text-anchor="middle" fill="#8a93a0" font-size="24">row x — every write is a new version</text>

    <!-- versions -->
    <rect x="180" y="130" width="480" height="56" rx="8" fill="#23262c" stroke="#3a4048"/><text x="206" y="165" fill="#6b7480" font-size="24">val A</text><text x="420" y="165" fill="#6b7480" font-size="20" font-family="monospace">xmin 100 · xmax 150  (dead)</text>
    <rect x="180" y="200" width="480" height="56" rx="8" fill="#23262c" stroke="#3a4048"/><text x="206" y="235" fill="#6b7480" font-size="24">val B</text><text x="420" y="235" fill="#6b7480" font-size="20" font-family="monospace">xmin 150 · xmax 200  (dead)</text>
    <rect x="180" y="270" width="480" height="56" rx="8" fill="#33301f" stroke="#e8b53f" stroke-width="2.5"/><text x="206" y="305" fill="#f5f7fa" font-size="24" font-weight="bold">val C</text><text x="420" y="305" fill="#aab2bd" font-size="20" font-family="monospace">xmin 200 · xmax —  (live)</text>

    <!-- vacuum -->
    <line x1="690" y1="158" x2="730" y2="158" stroke="#e8b53f" stroke-width="3" marker-end="url(#dm2)"/>
    <line x1="690" y1="228" x2="730" y2="228" stroke="#e8b53f" stroke-width="3" marker-end="url(#dm2)"/>
    <text x="740" y="200" fill="#e8b53f" font-size="22" font-weight="bold">VACUUM</text>
    <text x="740" y="226" fill="#8a93a0" font-size="18">reclaims dead</text>

    <text x="420" y="420" text-anchor="middle" fill="#aab2bd" font-size="22">old versions pile up — until cleanup runs</text>
    <text x="420" y="490" text-anchor="middle" fill="#8a93a0" font-size="24">a snapshot just decides which version it may see</text>
  </g>

  <rect x="120" y="1480" width="960" height="280" rx="16" fill="none" stroke="#e8b53f" stroke-width="2"/>
  <text x="600" y="1556" text-anchor="middle" fill="#e8b53f" font-size="30" letter-spacing="5">THE HARD PARTS</text>
  <text x="600" y="1630" text-anchor="middle" fill="#f5f7fa" font-size="38" font-weight="bold">Heap vs undo log · the visibility</text>
  <text x="600" y="1680" text-anchor="middle" fill="#f5f7fa" font-size="38" font-weight="bold">test · bloat &amp; xid wraparound</text>
  <text x="600" y="1732" text-anchor="middle" fill="#aab2bd" font-size="26">a supplement to Transactions &amp; Isolation, Lesson 4</text>

  <text x="600" y="1838" text-anchor="middle" fill="#646e7a" font-size="26">PostgreSQL · InnoDB · DDIA ch.7</text>
</svg>
