<svg xmlns="http://www.w3.org/2000/svg" viewBox="0 0 1200 1920" font-family="sans-serif">
  <defs>
    <marker id="cw" viewBox="0 0 10 10" refX="9" refY="5" markerWidth="7" markerHeight="7" orient="auto-start-reverse"><path d="M0,0 L10,5 L0,10 z" fill="#cdd4dd"/></marker>
    <marker id="ca" viewBox="0 0 10 10" refX="9" refY="5" markerWidth="7" markerHeight="7" orient="auto-start-reverse"><path d="M0,0 L10,5 L0,10 z" fill="#e8b53f"/></marker>
  </defs>
  <rect width="1200" height="1920" fill="#14171c"/>
  <rect x="40" y="40" width="1120" height="1840" fill="none" stroke="#2b313b" stroke-width="2" rx="14"/>

  <text x="600" y="232" text-anchor="middle" fill="#7f8a98" font-size="32" letter-spacing="9">A GUIDED LEARNING TRACK · PART 4</text>

  <text x="600" y="416" text-anchor="middle" fill="#f5f7fa" font-size="104" font-weight="bold" letter-spacing="1">STREAMING</text>
  <text x="600" y="540" text-anchor="middle" fill="#f5f7fa" font-size="92" font-weight="bold" letter-spacing="1">&amp; EVENT-DRIVEN</text>

  <line x1="410" y1="600" x2="790" y2="600" stroke="#e8b53f" stroke-width="4"/>
  <text x="600" y="666" text-anchor="middle" fill="#e8b53f" font-size="38" letter-spacing="6">THE LOG IS THE SOURCE OF TRUTH</text>

  <!-- HERO: append-only log + consumers at offsets -->
  <g transform="translate(180,760)">
    <rect x="0" y="0" width="840" height="640" rx="16" fill="#1b1f26" stroke="#2c323c" stroke-width="2"/>

    <text x="700" y="120" text-anchor="middle" fill="#8a93a0" font-size="24">producer appends →</text>
    <!-- log cells 0..7 -->
    <g font-size="26" font-weight="bold">
      <rect x="70"  y="150" width="84" height="64" rx="6" fill="#262b33" stroke="#454d58"/><text x="112" y="190" text-anchor="middle" fill="#9aa3af">0</text>
      <rect x="156" y="150" width="84" height="64" rx="6" fill="#262b33" stroke="#454d58"/><text x="198" y="190" text-anchor="middle" fill="#9aa3af">1</text>
      <rect x="242" y="150" width="84" height="64" rx="6" fill="#262b33" stroke="#454d58"/><text x="284" y="190" text-anchor="middle" fill="#9aa3af">2</text>
      <rect x="328" y="150" width="84" height="64" rx="6" fill="#262b33" stroke="#454d58"/><text x="370" y="190" text-anchor="middle" fill="#9aa3af">3</text>
      <rect x="414" y="150" width="84" height="64" rx="6" fill="#262b33" stroke="#454d58"/><text x="456" y="190" text-anchor="middle" fill="#9aa3af">4</text>
      <rect x="500" y="150" width="84" height="64" rx="6" fill="#262b33" stroke="#454d58"/><text x="542" y="190" text-anchor="middle" fill="#9aa3af">5</text>
      <rect x="586" y="150" width="84" height="64" rx="6" fill="#262b33" stroke="#454d58"/><text x="628" y="190" text-anchor="middle" fill="#9aa3af">6</text>
      <rect x="672" y="150" width="84" height="64" rx="6" fill="#33301f" stroke="#e8b53f" stroke-width="2"/><text x="714" y="190" text-anchor="middle" fill="#f5f7fa">7</text>
    </g>

    <!-- consumer pointers -->
    <line x1="714" y1="300" x2="714" y2="220" stroke="#e8b53f" stroke-width="3" marker-end="url(#ca)"/>
    <text x="714" y="326" text-anchor="middle" fill="#e8b53f" font-size="22">consumer A · 7</text>
    <line x1="456" y1="360" x2="456" y2="220" stroke="#cdd4dd" stroke-width="2.5" marker-end="url(#cw)"/>
    <text x="456" y="386" text-anchor="middle" fill="#aab2bd" font-size="22">consumer B · 4</text>
    <line x1="284" y1="420" x2="284" y2="220" stroke="#cdd4dd" stroke-width="2.5" marker-end="url(#cw)"/>
    <text x="284" y="446" text-anchor="middle" fill="#aab2bd" font-size="22">consumer C · 2</text>

    <text x="420" y="500" text-anchor="middle" fill="#8a93a0" font-size="24">one log, many readers — each at its own offset</text>
  </g>

  <rect x="120" y="1470" width="960" height="300" rx="16" fill="none" stroke="#e8b53f" stroke-width="2"/>
  <text x="600" y="1545" text-anchor="middle" fill="#e8b53f" font-size="30" letter-spacing="6">9 LESSONS</text>
  <text x="600" y="1622" text-anchor="middle" fill="#f5f7fa" font-size="44" font-weight="bold">Log → Kafka → Event Sourcing → Streams</text>
  <text x="600" y="1700" text-anchor="middle" fill="#aab2bd" font-size="30">partitions · delivery · CQRS ·</text>
  <text x="600" y="1742" text-anchor="middle" fill="#aab2bd" font-size="30">windows · watermarks · patterns</text>

  <text x="600" y="1840" text-anchor="middle" fill="#646e7a" font-size="26">Part 4 of the series · DDIA ch.11 · Kreps "The Log"</text>
</svg>
