<svg xmlns="http://www.w3.org/2000/svg" viewBox="0 0 1060 560" font-family="sans-serif">
  <defs>
    <marker id="at2" viewBox="0 0 10 10" refX="9" refY="5" markerWidth="7" markerHeight="7" orient="auto-start-reverse"><path d="M0,0 L10,5 L0,10 z" fill="#444"/></marker>
    <style>
      .title{font-size:16px;font-weight:bold;fill:#111}
      .box{fill:#eef1f4;stroke:#444;stroke-width:1.4}
      .cell{fill:#f6f6f4;stroke:#888;stroke-width:1}
      .txn{fill:#eefaf0;stroke:#1f7a1f;stroke-width:1.8;stroke-dasharray:7 4}
      .out{fill:#dbe7f3;stroke:#2a6099;stroke-width:1.3}
      .off{fill:#fff3d6;stroke:#b58a3b;stroke-width:1.3}
      .boxT{font-size:11.5px;font-weight:bold;fill:#111}
      .sub{font-size:10px;fill:#555}
      .mono{font-size:10px;font-family:monospace;fill:#222}
      .arr{stroke:#444;stroke-width:1.5;fill:none}
      .good{font-size:11px;font-weight:bold;fill:#1f7a1f}
    </style>
  </defs>
  <rect width="1060" height="560" fill="#ffffff"/>
  <text x="530" y="26" text-anchor="middle" class="title">Exactly-once read-process-write: the input offset commits inside the producer's transaction</text>

  <!-- input -->
  <text x="120" y="92" text-anchor="middle" class="boxT">input topic</text>
  <g><rect class="cell" x="40" y="100" width="34" height="30"/><rect class="cell" x="74" y="100" width="34" height="30"/><rect class="cell" x="108" y="100" width="34" height="30"/><rect class="cell" x="142" y="100" width="34" height="30"/></g>
  <text x="40" y="148" class="sub">consumer reads → offset 100</text>
  <line class="arr" x1="180" y1="115" x2="250" y2="200" marker-end="url(#at2)"/>

  <!-- processor -->
  <rect class="box" x="252" y="180" width="120" height="44" rx="6"/><text x="312" y="206" text-anchor="middle" class="boxT">process</text>

  <!-- transaction box -->
  <rect class="txn" x="410" y="90" width="380" height="280" rx="12"/>
  <text x="600" y="116" text-anchor="middle" class="boxT" fill="#1a5a30">ONE Kafka transaction</text>
  <rect class="out" x="440" y="140" width="320" height="50" rx="6"/><text x="456" y="162" class="mono">produce(result)</text><text x="456" y="180" class="sub">→ output topic partition(s)</text>
  <rect class="off" x="440" y="210" width="320" height="60" rx="6"/><text x="456" y="232" class="mono">sendOffsetsToTransaction(100)</text><text x="456" y="250" class="sub">→ writes offset 100 to</text><text x="456" y="263" class="sub">__consumer_offsets</text>
  <text x="600" y="312" text-anchor="middle" class="good">commitTransaction()</text>
  <text x="600" y="330" text-anchor="middle" class="sub">→ write COMMIT markers to every partition</text>
  <line class="arr" x1="372" y1="202" x2="438" y2="170" marker-end="url(#at2)"/>

  <!-- outputs -->
  <rect class="out" x="830" y="140" width="190" height="50" rx="6"/><text x="925" y="162" text-anchor="middle" class="boxT" fill="#26577e">output topic</text><text x="925" y="178" text-anchor="middle" class="sub">the result (committed)</text>
  <rect class="off" x="830" y="210" width="190" height="60" rx="6"/><text x="925" y="234" text-anchor="middle" class="boxT" fill="#7a5a10">__consumer_offsets</text><text x="925" y="250" text-anchor="middle" class="sub">offset 100 (committed)</text>
  <line class="arr" x1="760" y1="165" x2="828" y2="165" marker-end="url(#at2)"/>
  <line class="arr" x1="760" y1="240" x2="828" y2="240" marker-end="url(#at2)"/>

  <rect x="120" y="410" width="820" height="100" rx="10" fill="#f6f7f6" stroke="#ddd"/>
  <text x="530" y="436" text-anchor="middle" class="title" font-size="13">Output + input-progress commit together — or neither does.</text>
  <text x="140" y="462" class="sub">• Crash before commit → the transaction aborts → the offset was never committed → restart reprocesses from offset 100.</text>
  <text x="140" y="482" class="sub">• The partial output written before the crash is marked ABORTED — invisible to read_committed consumers.</text>
  <text x="140" y="500" class="good">Kafka gets dual-write atomicity (Part 2) for free — because BOTH writes are inside Kafka.</text>
</svg>
