<svg xmlns="http://www.w3.org/2000/svg" viewBox="0 0 1200 1920" font-family="sans-serif">
  <defs>
    <marker id="dc3" viewBox="0 0 10 10" refX="9" refY="5" markerWidth="7" markerHeight="7" orient="auto-start-reverse"><path d="M0,0 L10,5 L0,10 z" fill="#e8b53f"/></marker>
  </defs>
  <rect width="1200" height="1920" fill="#14171c"/>
  <rect x="40" y="40" width="1120" height="1840" fill="none" stroke="#2b313b" stroke-width="2" rx="14"/>

  <text x="600" y="232" text-anchor="middle" fill="#7f8a98" font-size="30" letter-spacing="7">PART 3 · LESSONS 3–4 · DEEP DIVE</text>

  <text x="600" y="404" text-anchor="middle" fill="#f5f7fa" font-size="124" font-weight="bold" letter-spacing="2">LSM</text>
  <text x="600" y="528" text-anchor="middle" fill="#f5f7fa" font-size="118" font-weight="bold" letter-spacing="2">COMPACTION</text>

  <line x1="410" y1="590" x2="790" y2="590" stroke="#e8b53f" stroke-width="4"/>
  <text x="600" y="656" text-anchor="middle" fill="#e8b53f" font-size="38" letter-spacing="6">SIZE-TIERED vs LEVELED</text>

  <!-- HERO: leveled tree -->
  <g transform="translate(180,720)">
    <rect x="0" y="0" width="840" height="660" rx="16" fill="#1b1f26" stroke="#2c323c" stroke-width="2"/>
    <text x="420" y="70" text-anchor="middle" fill="#8a93a0" font-size="24">writes flow down, rewritten at every level</text>

    <!-- memtable -->
    <rect x="350" y="100" width="140" height="44" rx="8" fill="#262b33" stroke="#cdd4dd" stroke-width="2"/><text x="420" y="128" text-anchor="middle" fill="#f5f7fa" font-size="20">memtable</text>
    <line x1="420" y1="144" x2="420" y2="180" stroke="#e8b53f" stroke-width="3" marker-end="url(#dc3)"/><text x="436" y="168" fill="#e8b53f" font-size="18">flush</text>
    <!-- L0 -->
    <rect x="320" y="184" width="60" height="34" rx="5" fill="#33271a" stroke="#b06000" stroke-width="1.6"/><rect x="386" y="184" width="60" height="34" rx="5" fill="#33271a" stroke="#b06000" stroke-width="1.6"/><rect x="452" y="184" width="60" height="34" rx="5" fill="#33271a" stroke="#b06000" stroke-width="1.6"/>
    <text x="540" y="206" fill="#8a93a0" font-size="20">L0 (overlap)</text>
    <line x1="420" y1="218" x2="420" y2="254" stroke="#e8b53f" stroke-width="3" marker-end="url(#dc3)"/><text x="436" y="242" fill="#e8b53f" font-size="18">compact</text>
    <!-- L1 -->
    <g fill="#1f2a22" stroke="#2f8a4e" stroke-width="1.4">
      <rect x="250" y="258" width="80" height="30" rx="4"/><rect x="336" y="258" width="80" height="30" rx="4"/><rect x="422" y="258" width="80" height="30" rx="4"/><rect x="508" y="258" width="80" height="30" rx="4"/>
    </g>
    <text x="610" y="278" fill="#8a93a0" font-size="20">L1</text>
    <line x1="420" y1="288" x2="420" y2="320" stroke="#e8b53f" stroke-width="3" marker-end="url(#dc3)"/>
    <!-- L2 -->
    <g fill="#1f2a22" stroke="#2f8a4e" stroke-width="1.2">
      <rect x="150" y="324" width="56" height="26" rx="3"/><rect x="212" y="324" width="56" height="26" rx="3"/><rect x="274" y="324" width="56" height="26" rx="3"/><rect x="336" y="324" width="56" height="26" rx="3"/><rect x="398" y="324" width="56" height="26" rx="3"/><rect x="460" y="324" width="56" height="26" rx="3"/><rect x="522" y="324" width="56" height="26" rx="3"/><rect x="584" y="324" width="56" height="26" rx="3"/>
    </g>
    <text x="660" y="342" fill="#8a93a0" font-size="20">L2 — ~10× bigger</text>

    <text x="420" y="430" text-anchor="middle" fill="#aab2bd" font-size="22">each level ~10× · non-overlapping ranges</text>
    <text x="420" y="500" text-anchor="middle" fill="#8a93a0" font-size="24">read · write · space — you only get two</text>
  </g>

  <rect x="120" y="1490" width="960" height="280" rx="16" fill="none" stroke="#e8b53f" stroke-width="2"/>
  <text x="600" y="1566" text-anchor="middle" fill="#e8b53f" font-size="30" letter-spacing="5">THE HARD PARTS</text>
  <text x="600" y="1640" text-anchor="middle" fill="#f5f7fa" font-size="40" font-weight="bold">The RUM trade-off · tombstone</text>
  <text x="600" y="1690" text-anchor="middle" fill="#f5f7fa" font-size="40" font-weight="bold">resurrection · L0 write stalls</text>
  <text x="600" y="1742" text-anchor="middle" fill="#aab2bd" font-size="26">a supplement to Storage Engines, Lessons 3–4</text>

  <text x="600" y="1840" text-anchor="middle" fill="#646e7a" font-size="26">DDIA ch.3 · LSM 1996 · RUM 2016 · RocksDB</text>
</svg>
