<svg xmlns="http://www.w3.org/2000/svg" viewBox="0 0 1200 1920" font-family="sans-serif">
  <rect width="1200" height="1920" fill="#14171c"/>
  <rect x="40" y="40" width="1120" height="1840" fill="none" stroke="#2b313b" stroke-width="2" rx="14"/>

  <text x="600" y="232" text-anchor="middle" fill="#7f8a98" font-size="32" letter-spacing="9">A GUIDED LEARNING TRACK · BOOK 3</text>

  <text x="600" y="416" text-anchor="middle" fill="#f5f7fa" font-size="98" font-weight="bold" letter-spacing="1">STORAGE ENGINES</text>
  <text x="600" y="540" text-anchor="middle" fill="#f5f7fa" font-size="98" font-weight="bold" letter-spacing="1">&amp; DATA MODELING</text>

  <line x1="410" y1="600" x2="790" y2="600" stroke="#e8b53f" stroke-width="4"/>
  <text x="600" y="666" text-anchor="middle" fill="#e8b53f" font-size="36" letter-spacing="6">HOW DATABASES STORE &amp; FIND DATA</text>

  <!-- HERO: a B-tree lookup -->
  <g transform="translate(180,750)">
    <rect x="0" y="0" width="840" height="640" rx="16" fill="#1b1f26" stroke="#2c323c" stroke-width="2"/>

    <text x="420" y="70" text-anchor="middle" fill="#8a93a0" font-size="26">lookup key = 50</text>

    <!-- root -->
    <rect x="345" y="96" width="150" height="58" rx="8" fill="#262b33" stroke="#cdd4dd" stroke-width="2"/>
    <text x="420" y="133" text-anchor="middle" fill="#f5f7fa" font-size="28" font-weight="bold">30 | 60</text>

    <!-- pointers -->
    <line x1="390" y1="154" x2="200" y2="300" stroke="#454d58" stroke-width="2.5"/>
    <line x1="420" y1="154" x2="420" y2="300" stroke="#e8b53f" stroke-width="3.5"/>
    <line x1="450" y1="154" x2="640" y2="300" stroke="#454d58" stroke-width="2.5"/>
    <text x="300" y="240" fill="#8a93a0" font-size="20">&lt; 30</text>
    <text x="436" y="240" fill="#e8b53f" font-size="20">30–60</text>
    <text x="540" y="240" fill="#8a93a0" font-size="20">&gt; 60</text>

    <!-- leaves -->
    <rect x="120" y="302" width="160" height="58" rx="8" fill="#262b33" stroke="#454d58" stroke-width="2"/>
    <text x="200" y="339" text-anchor="middle" fill="#9aa3af" font-size="26">10 · 20</text>
    <rect x="340" y="302" width="160" height="58" rx="8" fill="#33301f" stroke="#e8b53f" stroke-width="2.5"/>
    <text x="420" y="339" text-anchor="middle" fill="#f5f7fa" font-size="26" font-weight="bold">40 · 50</text>
    <rect x="560" y="302" width="160" height="58" rx="8" fill="#262b33" stroke="#454d58" stroke-width="2"/>
    <text x="640" y="339" text-anchor="middle" fill="#9aa3af" font-size="26">70 · 80</text>

    <text x="420" y="430" text-anchor="middle" fill="#e8b53f" font-size="26" font-weight="bold">found in leaf [40 · 50]</text>
    <text x="420" y="476" text-anchor="middle" fill="#8a93a0" font-size="24">a balanced tree — root to leaf in O(log n)</text>
  </g>

  <rect x="120" y="1470" width="960" height="300" rx="16" fill="none" stroke="#e8b53f" stroke-width="2"/>
  <text x="600" y="1545" text-anchor="middle" fill="#e8b53f" font-size="30" letter-spacing="6">9 LESSONS</text>
  <text x="600" y="1625" text-anchor="middle" fill="#f5f7fa" font-size="50" font-weight="bold">B-Trees → LSM → Column Stores</text>
  <text x="600" y="1700" text-anchor="middle" fill="#aab2bd" font-size="30">log + index · indexes · data models ·</text>
  <text x="600" y="1742" text-anchor="middle" fill="#aab2bd" font-size="30">normalization · encoding · OLAP</text>

  <text x="600" y="1840" text-anchor="middle" fill="#646e7a" font-size="26">Book 3 of the series · DDIA ch.2–4</text>
</svg>
