<svg xmlns="http://www.w3.org/2000/svg" viewBox="0 0 1200 1920" font-family="sans-serif">
  <defs>
    <marker id="cArrowT" viewBox="0 0 10 10" refX="9" refY="5" markerWidth="7" markerHeight="7" orient="auto-start-reverse">
      <path d="M0,0 L10,5 L0,10 z" fill="#cdd4dd"/>
    </marker>
    <marker id="cArrowA" viewBox="0 0 10 10" refX="9" refY="5" markerWidth="7" markerHeight="7" orient="auto-start-reverse">
      <path d="M0,0 L10,5 L0,10 z" fill="#e8b53f"/>
    </marker>
  </defs>

  <rect width="1200" height="1920" fill="#14171c"/>
  <rect x="40" y="40" width="1120" height="1840" fill="none" stroke="#2b313b" stroke-width="2" rx="14"/>

  <text x="600" y="232" text-anchor="middle" fill="#7f8a98" font-size="32" letter-spacing="9">A GUIDED LEARNING TRACK · BOOK 2</text>

  <text x="600" y="420" text-anchor="middle" fill="#f5f7fa" font-size="124" font-weight="bold" letter-spacing="1">TRANSACTIONS</text>
  <text x="600" y="560" text-anchor="middle" fill="#f5f7fa" font-size="124" font-weight="bold" letter-spacing="1">&amp; ISOLATION</text>

  <line x1="420" y1="620" x2="780" y2="620" stroke="#e8b53f" stroke-width="4"/>
  <text x="600" y="688" text-anchor="middle" fill="#e8b53f" font-size="42" letter-spacing="10">CONCURRENCY DONE RIGHT</text>

  <!-- HERO: lost-update interleaving -->
  <g transform="translate(180,760)">
    <rect x="0" y="0" width="840" height="630" rx="16" fill="#1b1f26" stroke="#2c323c" stroke-width="2"/>

    <rect x="170" y="56" width="92" height="56" rx="9" fill="#262b33" stroke="#cdd4dd" stroke-width="2"/>
    <text x="216" y="94" text-anchor="middle" fill="#f5f7fa" font-size="34" font-weight="bold">T1</text>
    <rect x="578" y="56" width="92" height="56" rx="9" fill="#262b33" stroke="#cdd4dd" stroke-width="2"/>
    <text x="624" y="94" text-anchor="middle" fill="#f5f7fa" font-size="34" font-weight="bold">T2</text>

    <line x1="216" y1="114" x2="216" y2="540" stroke="#454d58" stroke-width="2" stroke-dasharray="5 6"/>
    <line x1="624" y1="114" x2="624" y2="540" stroke="#454d58" stroke-width="2" stroke-dasharray="5 6"/>

    <text x="216" y="170" text-anchor="middle" fill="#cdd4dd" font-size="28">read x = 10</text>
    <text x="624" y="220" text-anchor="middle" fill="#cdd4dd" font-size="28">read x = 10</text>
    <text x="216" y="300" text-anchor="middle" fill="#cdd4dd" font-size="28">write x = 11</text>
    <text x="624" y="360" text-anchor="middle" fill="#e8b53f" font-size="28">write x = 11</text>

    <circle cx="216" cy="186" r="6" fill="#cdd4dd"/>
    <circle cx="624" cy="236" r="6" fill="#cdd4dd"/>
    <circle cx="216" cy="316" r="6" fill="#cdd4dd"/>
    <circle cx="624" cy="376" r="6" fill="#e8b53f"/>

    <text x="420" y="470" text-anchor="middle" fill="#e8b53f" font-size="30" font-weight="bold">final x = 11 — one update lost</text>
    <text x="420" y="510" text-anchor="middle" fill="#8a93a0" font-size="24">two transactions, no isolation</text>
  </g>

  <rect x="120" y="1470" width="960" height="300" rx="16" fill="none" stroke="#e8b53f" stroke-width="2"/>
  <text x="600" y="1545" text-anchor="middle" fill="#e8b53f" font-size="30" letter-spacing="6">9 LESSONS</text>
  <text x="600" y="1625" text-anchor="middle" fill="#f5f7fa" font-size="56" font-weight="bold">ACID → Serializability → Sagas</text>
  <text x="600" y="1700" text-anchor="middle" fill="#aab2bd" font-size="30">Anomalies · isolation levels · MVCC ·</text>
  <text x="600" y="1742" text-anchor="middle" fill="#aab2bd" font-size="30">write skew · 2PC · sagas</text>

  <text x="600" y="1840" text-anchor="middle" fill="#646e7a" font-size="26">Book 2 of the series · DDIA ch.7 · Berenson 1995</text>
</svg>
