<svg xmlns="http://www.w3.org/2000/svg" viewBox="0 0 1200 630" font-family="Helvetica,Arial,sans-serif">
  <defs>
    <linearGradient id="bg" x1="0" y1="0" x2="1" y2="1">
      <stop offset="0" stop-color="#171636"/>
      <stop offset="1" stop-color="#0c2a27"/>
    </linearGradient>
    <linearGradient id="logo" x1="0" y1="0" x2="1" y2="1">
      <stop offset="0" stop-color="#5b54e6"/>
      <stop offset="1" stop-color="#0f8a7e"/>
    </linearGradient>
  </defs>
  <rect width="1200" height="630" fill="url(#bg)"/>
  <rect x="2" y="2" width="1196" height="626" rx="22" fill="none" stroke="#2c3a52" stroke-width="2"/>

  <!-- brand row -->
  <g transform="translate(72,70)">
    <rect width="56" height="56" rx="13" fill="url(#logo)"/>
    <g fill="#ffffff">
      <rect x="13" y="13" width="13" height="13" rx="3"/><rect x="30" y="13" width="13" height="13" rx="3"/>
      <rect x="13" y="30" width="13" height="13" rx="3"/><rect x="30" y="30" width="13" height="13" rx="3"/>
    </g>
    <text x="76" y="38" font-size="26" letter-spacing="3" fill="#9fb0c8" font-weight="bold">STACKDEPTH</text>
  </g>

  <!-- headline -->
  <text x="72" y="248" font-size="72" font-weight="bold" fill="#ffffff">System design &amp; AI engineering,</text>
  <text x="72" y="328" font-size="72" font-weight="bold" fill="#9fe7da">from first principles.</text>

  <!-- positioning line -->
  <text x="72" y="394" font-size="29" fill="#c4cfdd">A free, open engineering learning hub &#183; built in public</text>
  <text x="72" y="434" font-size="23" fill="#7f8fa6">Visual lessons &#183; interactive quizzes &#183; senior/staff interview panels &#183; cheat sheets</text>

  <!-- category chips (scale past any number of tracks) -->
  <g transform="translate(72,474)" font-size="16" font-weight="bold" fill="#fff">
    <rect x="0"   y="0" width="150" height="38" rx="19" fill="#5b54e6"/><text x="75"  y="24" text-anchor="middle">AI Engineering</text>
    <rect x="164" y="0" width="140" height="38" rx="19" fill="#0f8a7e"/><text x="234" y="24" text-anchor="middle">System Design</text>
    <rect x="318" y="0" width="196" height="38" rx="19" fill="#c2700f"/><text x="416" y="24" text-anchor="middle">Distributed Systems</text>
    <rect x="528" y="0" width="152" height="38" rx="19" fill="#2f8a4e"/><text x="604" y="24" text-anchor="middle">Data &amp; Storage</text>
    <rect x="694" y="0" width="70"  height="38" rx="19" fill="#1f77d0"/><text x="729" y="24" text-anchor="middle">APIs</text>
  </g>

  <!-- footer line -->
  <text x="72" y="582" font-size="24" fill="#7f8fa6">dineshbyte.github.io/engineering-learning-hub</text>
  <text x="1128" y="582" text-anchor="end" font-size="24" fill="#9fe7da" font-weight="bold">free &#183; open source &#183; MIT</text>
</svg>
